<svg xmlns="http://www.w3.org/2000/svg" width="233" height="226" fill="none" viewBox="0 0 233 226"><g clip-path="url(#a)"><g filter="url(#b)"><rect width="232.404" height="225.253" x=".327" y=".599" fill="#1d2067" rx="8.939"/></g><path fill="#8476aa" d="M32.92 31.275q1.488 0 2.703.672a4.98 4.98 0 0 1 2.632 4.448q0 1.43-.7 2.617a5.1 5.1 0 0 1-1.931 1.86q-1.216.686-2.704.686-1.487 0-2.717-.686a5.1 5.1 0 0 1-1.916-1.86 5.05 5.05 0 0 1-.701-2.617q0-1.429.7-2.603a5 5 0 0 1 1.917-1.845q1.23-.672 2.717-.672m.03 1.716q-.916 0-1.703.458a3.3 3.3 0 0 0-1.244 1.23 3.3 3.3 0 0 0-.458 1.716q0 .945.458 1.73.473.788 1.244 1.245a3.3 3.3 0 0 0 1.702.458q.901 0 1.673-.458a3.3 3.3 0 0 0 1.216-1.244 3.4 3.4 0 0 0 .458-1.73q0-.945-.458-1.717a3.2 3.2 0 0 0-1.216-1.23 3.2 3.2 0 0 0-1.673-.458m5.673.787 1.945-.014 2.002 5.82 1.96-5.82h1.873l-2.918 7.651H41.57zm11.778-.072q1.83 0 2.746 1.044.93 1.045.93 2.932 0 .372-.015.558h-5.649q.186.816.758 1.287.587.458 1.43.458.586 0 1.116-.215.543-.228.944-.643l1 1.044q-.571.63-1.4.972a4.6 4.6 0 0 1-1.817.344q-1.173 0-2.074-.487a3.43 3.43 0 0 1-1.373-1.358q-.486-.886-.486-2.031 0-1.144.486-2.031a3.5 3.5 0 0 1 1.388-1.373q.886-.5 2.016-.5m1.974 3.29q-.03-.843-.558-1.345-.53-.5-1.402-.5-.814 0-1.373.5-.543.487-.672 1.345zm5.16-1.76a2.73 2.73 0 0 1 1.044-1.13q.672-.399 1.559-.414v1.802q-1.188-.071-1.902.558-.702.615-.701 1.673v3.69h-1.86v-7.651h1.86zm3.1-1.458 1.944-.014 2.002 5.82 1.96-5.82h1.873l-2.917 7.651H63.58zm8.854-.014h1.859v7.651h-1.86zm.915-3.29q.458 0 .758.315t.3.8q0 .474-.3.787-.3.315-.758.315t-.758-.315-.3-.786q0-.486.3-.801t.758-.315m6.436 3.232q1.83 0 2.746 1.044.93 1.045.93 2.932 0 .372-.015.558h-5.65q.187.816.759 1.287.586.458 1.43.458.586 0 1.115-.215.544-.228.945-.643l1 1.044q-.57.63-1.401.972a4.6 4.6 0 0 1-1.816.344q-1.173 0-2.074-.487a3.4 3.4 0 0 1-1.373-1.358q-.486-.886-.486-2.031 0-1.144.486-2.031a3.5 3.5 0 0 1 1.387-1.373q.887-.5 2.017-.5m1.973 3.29q-.029-.843-.557-1.345-.53-.5-1.402-.5-.815 0-1.373.5-.543.487-.672 1.345zm1.863-3.218 1.917-.014 1.873 5.778 1.816-5.778h1.874L90 39.544l1.83-5.778h1.874l-2.775 7.651h-1.902l-1.83-5.392-1.817 5.392h-1.9zm71.072 7.635v-6.38h.742v5.708h2.815v.672zm7.476 0-.144-.68h-.035q-.357.449-.715.61-.354.157-.886.157-.712 0-1.118-.366-.4-.367-.401-1.043 0-1.45 2.317-1.52l.812-.025v-.297q0-.563-.244-.83-.24-.27-.773-.27-.597 0-1.353.367l-.222-.555q.353-.192.772-.3.423-.11.847-.11.855 0 1.266.38.414.38.414 1.217v3.265zm-1.636-.51q.676 0 1.06-.372.389-.37.389-1.038v-.432l-.725.03q-.864.03-1.248.27-.38.237-.38.738 0 .394.236.598.24.206.668.206m6.756-.795q0 .668-.498 1.03-.497.362-1.396.362-.952 0-1.484-.3v-.673q.345.174.737.275.398.1.764.1.567 0 .873-.179a.6.6 0 0 0 .306-.554.6.6 0 0 0-.245-.475q-.24-.2-.943-.472-.668-.249-.951-.432a1.35 1.35 0 0 1-.419-.423 1.1 1.1 0 0 1-.135-.563q0-.585.475-.921.477-.34 1.305-.34.773 0 1.511.313l-.258.59q-.72-.297-1.305-.297-.514 0-.777.161a.5.5 0 0 0-.262.446q0 .192.096.327.1.135.319.258.218.122.838.353.85.31 1.148.624.301.315.301.79m2.728.794q.192 0 .371-.026.179-.03.284-.06v.553a1.3 1.3 0 0 1-.35.092q-.227.04-.41.04-1.388 0-1.388-1.463v-2.845h-.685v-.35l.685-.3.306-1.022h.419v1.109h1.388v.563h-1.388v2.815q0 .432.205.663t.563.231m5.6-3.386q1.008 0 1.584.502.58.497.58 1.366 0 .99-.632 1.553-.629.564-1.738.563-1.078 0-1.645-.344v-.699q.306.196.759.31.454.11.895.11.768 0 1.192-.363.427-.361.427-1.047 0-1.335-1.636-1.336-.415 0-1.109.127l-.375-.24.24-2.986h3.173v.668h-2.553l-.162 1.916q.502-.1 1-.1m11.871 3.897v-3.112q0-.572-.244-.855-.244-.288-.76-.288-.676 0-.999.388-.324.39-.323 1.196v2.671h-.725v-3.112q0-.572-.244-.855-.245-.288-.764-.288-.681 0-.999.41-.315.406-.315 1.336v2.51h-.724v-4.784h.589l.118.654h.035a1.43 1.43 0 0 1 .576-.545q.375-.197.838-.197 1.122 0 1.466.812h.035q.215-.375.62-.593.406-.219.925-.219.813 0 1.214.42.406.415.406 1.33v3.121zm6.351-2.396q0 1.17-.59 1.829-.588.654-1.628.654-.64 0-1.139-.3a2 2 0 0 1-.768-.865q-.27-.563-.271-1.318 0-1.17.585-1.82.585-.654 1.624-.655 1.004 0 1.593.668.594.668.594 1.807m-3.645 0q0 .917.367 1.397t1.078.48 1.078-.476q.37-.48.371-1.401 0-.913-.371-1.384-.367-.475-1.087-.475-.711 0-1.074.467-.362.466-.362 1.392m8.192 2.396v-3.094q0-.585-.266-.873t-.833-.288q-.752 0-1.1.406-.35.405-.349 1.34v2.51h-.725v-4.784h.589l.118.654h.035a1.46 1.46 0 0 1 .624-.545q.402-.197.895-.197.864 0 1.3.42.437.415.437 1.33v3.121zm3.763-.51q.191 0 .371-.027.179-.03.283-.06v.553a1.3 1.3 0 0 1-.349.092q-.227.04-.41.04-1.388 0-1.388-1.463v-2.845h-.685v-.35l.685-.3.306-1.022h.419v1.109h1.387v.563h-1.387v2.815q0 .432.205.663.204.231.563.231m4.888.51V38.32q0-.585-.266-.873-.267-.288-.834-.288-.754 0-1.104.41-.345.41-.345 1.344v2.501h-.724v-6.791h.724v2.056q0 .37-.035.615h.044q.214-.345.606-.541.397-.201.904-.201.877 0 1.314.419.44.414.44 1.322v3.121z"/><g fill="#fff" clip-path="url(#c)" opacity=".2"><path d="m121.713 193.735-2.165-5.657h-.035q.061.672.061 1.598v4.059h-.685v-6.381h1.117l2.021 5.263h.035l2.038-5.263h1.109v6.381h-.742v-4.112q0-.707.061-1.536h-.035l-2.182 5.648zm8.083 0-.144-.681h-.035q-.358.449-.716.611-.354.157-.886.157-.712 0-1.117-.367-.402-.366-.402-1.043 0-1.449 2.318-1.519l.812-.026v-.297q0-.563-.245-.829-.24-.27-.772-.271-.599 0-1.353.367l-.223-.554q.353-.192.773-.301.423-.11.846-.11.856 0 1.266.38.415.38.415 1.218v3.265zm-1.637-.511q.677 0 1.061-.371.388-.371.388-1.039v-.432l-.724.031q-.864.03-1.249.27-.38.236-.379.738 0 .393.235.598.24.205.668.205m5.853-4.36q.318 0 .572.052l-.101.672a2.5 2.5 0 0 0-.523-.065q-.58 0-.995.471-.411.471-.411 1.174v2.567h-.724v-4.784h.598l.083.886h.035q.266-.466.641-.72t.825-.253m51.631 4.871-2.165-5.657h-.035q.061.672.061 1.598v4.059h-.685v-6.381h1.117l2.021 5.263h.035l2.038-5.263h1.109v6.381h-.742v-4.112q0-.707.061-1.536h-.035l-2.182 5.648zm8.083 0-.144-.681h-.035q-.357.449-.716.611-.353.157-.886.157-.71 0-1.117-.367-.402-.366-.402-1.043 0-1.449 2.318-1.519l.812-.026v-.297q0-.563-.245-.829-.24-.27-.772-.271-.599 0-1.353.367l-.223-.554q.353-.192.773-.301.423-.11.847-.11.855 0 1.265.38.415.38.415 1.218v3.265zm-1.637-.511q.677 0 1.061-.371.388-.371.388-1.039v-.432l-.724.031q-.864.03-1.248.27-.38.236-.38.738 0 .393.236.598.24.205.667.205m2.912-4.273h.776l1.048 2.728q.345.934.428 1.349h.035q.056-.223.235-.76.183-.541 1.187-3.317h.777l-2.055 5.447q-.306.807-.716 1.143-.406.34-1 .341-.332 0-.654-.074v-.581q.24.053.536.053.747 0 1.065-.838l.267-.681zm-38.966 4.784-.794-2.03h-2.558l-.786 2.03h-.75l2.522-6.408h.624l2.51 6.408zm-1.026-2.698-.742-1.977a11 11 0 0 1-.297-.921q-.096.42-.274.921l-.751 1.977zm4.788 2.785q-.467 0-.855-.17a1.6 1.6 0 0 1-.646-.533h-.053q.053.418.053.795v1.968h-.725v-6.931h.589l.101.655h.035q.28-.393.65-.568t.851-.174q.951 0 1.467.65.519.651.519 1.824 0 1.179-.528 1.834-.524.65-1.458.65m-.105-4.343q-.733 0-1.06.406t-.336 1.292v.161q0 1.009.336 1.445.336.432 1.078.432.62 0 .969-.502.353-.502.353-1.383 0-.895-.353-1.371-.35-.48-.987-.48m5.543-.615q.319 0 .572.052l-.1.672a2.5 2.5 0 0 0-.524-.065q-.58 0-.995.471-.41.471-.41 1.174v2.567h-.725v-4.784h.598l.083.886h.035q.266-.466.641-.72.376-.253.825-.253m-76.993 4.871H87.5v-6.381h3.557v.659h-2.815v2.335h2.645v.659h-2.645zm5.787.087q-1.06 0-1.675-.646-.612-.647-.611-1.794 0-1.157.567-1.837.572-.681 1.532-.681.899 0 1.423.593.523.59.523 1.558v.459h-3.295q.022.842.424 1.279.405.436 1.139.436.773 0 1.527-.323v.646a3.7 3.7 0 0 1-.729.236 4 4 0 0 1-.825.074m-.196-4.352q-.576 0-.92.376-.342.375-.402 1.039h2.5q0-.685-.305-1.048-.306-.367-.873-.367m5.42-.598q.945 0 1.463.646.524.642.524 1.82 0 1.179-.528 1.834-.525.65-1.458.65-.468 0-.856-.17a1.63 1.63 0 0 1-.645-.533H97.7l-.153.616h-.519v-6.792h.724v1.65q0 .555-.034.995h.034q.507-.716 1.502-.716m-.104.607q-.742 0-1.07.428-.326.423-.326 1.431t.335 1.445q.337.432 1.079.432.667 0 .995-.484.327-.489.327-1.401 0-.934-.327-1.393-.328-.458-1.013-.458m-43.628 5.936q-.412 0-.646-.118v-.633q.31.087.646.087.432 0 .654-.261.227-.263.227-.755v-6.381h.742v6.319q0 .83-.419 1.284-.418.458-1.204.458m6.154-1.68-.144-.681h-.035q-.358.449-.716.611-.354.157-.886.157-.711 0-1.117-.367-.402-.366-.402-1.043 0-1.449 2.318-1.519l.811-.026v-.297q0-.563-.244-.829-.24-.27-.772-.271-.6 0-1.353.367l-.223-.554q.353-.192.773-.301a3.4 3.4 0 0 1 .846-.11q.855 0 1.266.38.415.38.415 1.218v3.265zm-1.637-.511q.676 0 1.06-.371.39-.371.389-1.039v-.432l-.724.031q-.865.03-1.249.27-.38.236-.38.738.001.393.236.598.24.205.668.205m6.944.511v-3.095q0-.585-.266-.873-.267-.288-.834-.288-.75 0-1.1.406t-.349 1.34v2.51h-.724v-4.784h.589l.118.655h.035q.222-.354.624-.546.401-.196.894-.196.865 0 1.301.419.436.414.436 1.331v3.121z"/></g><path stroke="#ede9f2" stroke-width=".447" d="M46.807 114.567h160.895M46.807 69.874h160.895M46.807 92.22h160.895M46.807 136.913h160.895M46.807 159.26h160.895M46.807 181.606h160.895" opacity=".1"/><g fill="#fff" clip-path="url(#d)" opacity=".2"><path d="M34.281 85.362q.873 0 1.384.406.51.405.51 1.121 0 .472-.292.86-.292.39-.934.707.777.372 1.104.781.328.406.328.943 0 .795-.555 1.27-.555.472-1.519.472-1.02 0-1.57-.445-.55-.45-.55-1.27 0-1.096 1.335-1.707-.603-.341-.864-.733a1.57 1.57 0 0 1-.262-.886q0-.694.51-1.105.516-.414 1.375-.414m-1.379 4.862q0 .524.362.816.367.292 1.026.292.65 0 1.013-.305.362-.306.362-.838 0-.423-.34-.75-.341-.333-1.188-.642-.65.279-.943.62a1.2 1.2 0 0 0-.292.807m1.37-4.273q-.545 0-.855.262a.87.87 0 0 0-.31.698 1 1 0 0 0 .258.69q.256.288.951.576.624-.262.882-.563.261-.3.262-.703a.85.85 0 0 0-.319-.698q-.315-.262-.869-.262m8.062 5.883h-.873l-2.326-3.094-.668.594v2.5h-.742v-6.38h.742v3.164l2.894-3.165h.877l-2.567 2.772zm-5.971 67.04H32.17v-.624l1.68-1.689q.768-.777 1.013-1.109t.366-.646.122-.676q0-.511-.31-.808-.31-.3-.86-.301-.397 0-.754.131-.354.13-.79.476l-.384-.493q.881-.734 1.92-.734.9 0 1.41.463.51.459.51 1.235 0 .608-.34 1.2-.34.594-1.274 1.502l-1.397 1.366v.035h3.282zm5.97 0h-.872l-2.326-3.094-.668.593v2.501h-.742v-6.381h.742v3.164l2.894-3.164h.877l-2.567 2.772zm-.444 19.147q0 1.655-.524 2.471-.519.816-1.593.816-1.031 0-1.567-.834-.537-.837-.537-2.453 0-1.667.52-2.474.519-.808 1.584-.808 1.039 0 1.575.843.542.841.542 2.439m-3.488 0q0 1.392.328 2.03.327.633 1.043.633.724 0 1.047-.642.328-.646.328-2.021t-.328-2.012q-.323-.64-1.047-.641-.716 0-1.043.633-.328.628-.328 2.02m-6.158-66.568q0-1.881.729-2.811.733-.933 2.165-.934.492 0 .776.083v.624a2.5 2.5 0 0 0-.768-.109q-1.025 0-1.567.642-.54.637-.593 2.008h.052q.48-.751 1.52-.751.858 0 1.352.519.498.52.498 1.41 0 .995-.546 1.567-.541.567-1.466.567-.99 0-1.572-.742-.58-.746-.58-2.073m2.143 2.2q.62 0 .96-.389.345-.392.345-1.13 0-.633-.319-.995t-.951-.362a1.6 1.6 0 0 0-.72.161 1.35 1.35 0 0 0-.524.445 1.04 1.04 0 0 0-.192.59q0 .449.175.838.174.389.493.615.323.227.733.227m7.948.528h-.873l-2.326-3.094-.668.593v2.501h-.742V107.8h.742v3.164l2.894-3.164h.877l-2.567 2.772zM29.738 69.488h-.707V64.94q0-.567.034-1.074a5 5 0 0 1-.205.192q-.113.1-1.038.852l-.385-.498 1.69-1.305h.61zm6.66-3.2q0 1.655-.524 2.471-.519.816-1.593.816-1.03 0-1.567-.833-.537-.839-.537-2.453 0-1.668.52-2.475.519-.807 1.584-.807 1.04 0 1.576.842.54.843.54 2.44m-3.487 0q0 1.394.327 2.03.327.633 1.043.633.724 0 1.048-.641.327-.647.327-2.021 0-1.376-.327-2.012-.324-.642-1.048-.642-.716 0-1.043.633-.327.629-.327 2.02m9.423 3.2h-.873l-2.327-3.094-.667.593v2.501h-.742v-6.381h.742v3.164l2.893-3.164h.878L39.67 65.88zm-5.669 65.572h-.947v1.466h-.694v-1.466H31.92v-.633l3.029-4.316h.768v4.29h.947zm-1.64-.659v-2.121q0-.624.043-1.41h-.035q-.21.419-.393.694l-1.995 2.837zm7.31 2.125h-.873l-2.326-3.094-.668.594v2.5h-.742v-6.381h.742v3.165l2.894-3.165h.877l-2.567 2.772z"/></g><path fill="#8476aa" d="M123.679 129.315a2.681 2.681 0 0 1 5.363 0v51.844h-5.363z"/><path fill="#99efd0" d="M131 144.5a2.5 2.5 0 1 1 5 0V181h-5z"/><path fill="#8476aa" d="M91.5 114.12a2.682 2.682 0 1 1 5.364 0v67.039H91.5z"/><path fill="#99efd0" d="M99 134.5a2.5 2.5 0 1 1 5 0V181h-5z"/><path fill="#8476aa" d="M188.037 76.577a2.682 2.682 0 0 1 5.363 0V181.16h-5.363z"/><path fill="#99efd0" d="M195 107.5a2.5 2.5 0 1 1 5 0V181h-5z"/><path fill="#8476aa" d="M59.321 149.874a2.682 2.682 0 1 1 5.364 0v31.285H59.32z"/><path fill="#99efd0" d="M66 160a3 3 0 1 1 6 0v21h-6z"/><path fill="#8476aa" d="M155.858 88.198a2.682 2.682 0 0 1 5.364 0v92.961h-5.364z"/><path fill="#99efd0" d="M163 115.5a2.5 2.5 0 1 1 5 0V181h-5z"/></g><defs><clipPath id="a"><path fill="#fff" d="M.327.6H232.73v225.252H.327z"/></clipPath><clipPath id="c"><path fill="#fff" d="M53.065 184.735h146.593v12.514H53.065z"/></clipPath><clipPath id="d"><path fill="#fff" d="M26.249 60.488h16.09v124.247h-16.09z"/></clipPath><filter id="b" width="339.667" height="332.516" x="-60.456" y="-38.73" color-interpolation-filters="sRGB" filterUnits="userSpaceOnUse"><feFlood flood-opacity="0" result="BackgroundImageFix"/><feColorMatrix in="SourceAlpha" result="hardAlpha" values="0 0 0 0 0 0 0 0 0 0 0 0 0 0 0 0 0 0 127 0"/><feOffset dx="-7.151" dy="14.302"/><feGaussianBlur stdDeviation="26.816"/><feColorMatrix values="0 0 0 0 0.322856 0 0 0 0 0.446289 0 0 0 0 0.545035 0 0 0 0.24 0"/><feBlend in2="BackgroundImageFix" result="effect1_dropShadow"/><feBlend in="SourceGraphic" in2="effect1_dropShadow" result="shape"/></filter></defs></svg>